<svg id="ロゴ" xmlns="http://www.w3.org/2000/svg" xmlns:xlink="http://www.w3.org/1999/xlink" width="389.037" height="57.318" viewBox="0 0 389.037 57.318">
  <defs>
    <clipPath id="clip-path">
      <rect id="長方形_30118" data-name="長方形 30118" width="389.038" height="57.319" transform="translate(0 0)" fill="none"/>
    </clipPath>
  </defs>
  <g id="グループ_135506" data-name="グループ 135506" clip-path="url(#clip-path)">
    <path id="パス_125166" data-name="パス 125166" d="M179.242,40.569c7.3-.4,13.027-2.52,17.039-6.318a27.677,27.677,0,0,0,5.3-8.077l.1-.269H186.085l-2.47,6.785h-4.566L183.1,21.569h10.047l1.643-4.512h4.726l-1.642,4.512h10.367l-.683,1.876c-.677,1.861-4.455,11.4-12.31,16.445a34.579,34.579,0,0,1-16.078,5.073Z"/>
    <path id="パス_125167" data-name="パス 125167" d="M218.622,45.056,228.5,18.171h12.339L233.194,38.98a3.675,3.675,0,0,1-3.938,2.537h-3.477l.851-4.277h2.075c1.065,0,1.233-.341,1.541-1.181l5.087-13.851h-4.449l-8.392,22.848Zm-13.085-1.77,9.018-24.548a40.681,40.681,0,0,0,11.491-1.944l.312,3.671a47.216,47.216,0,0,1-8.913,1.835l-.122.014-1.76,4.792h7.895l-1.384,3.767h-7.9l-2.172,5.917H219.9l-1.407,3.828h-7.9l-.979,2.668Z"/>
    <path id="パス_125168" data-name="パス 125168" d="M89.435,42.739l1.7-4.624h19l5.134-13.971H96.591l1.688-4.592h23.707l-8.521,23.187Z"/>
    <path id="パス_125169" data-name="パス 125169" d="M254.7,44.711l.734-4.191h3.574a1.186,1.186,0,0,0,1.175-.9l8.413-22.5h3.77l-9.213,24.646a4.075,4.075,0,0,1-3.824,2.95Zm-10.781,0L248.561,32.3h-1.7l-3.933,10.517h-2.492l3.188-8.529-.369-.153c-2.917,6.349-5.316,9.239-6.413,10.474L235.6,40.742a33.4,33.4,0,0,0,4.808-8.855l5.2-13.913h15.91l-3.195,8.547h-4.563l-.925,2.473H257.4l-4.485,12a2.512,2.512,0,0,1-2.308,1.824h-1.516l.313-3.45h.575c.616,0,.8-.214.986-.724l2.371-6.343H251.6l-4.641,12.413Zm1.373-15.717h4.5l.925-2.473h-4.5Zm2.06-5.509h8.336l.814-2.179h-8.337Zm8.361,14.175,7.038-18.827h3.4L259.12,37.66Z"/>
    <path id="パス_125170" data-name="パス 125170" d="M120.577,39.349c13.252-1.066,21.224-6.11,29.305-18.541L153.5,23c-11.318,17.029-22.6,19.972-33.205,21.436Zm13.589-11.892a27.165,27.165,0,0,0-7.922-4.762l3.609-4.039a27.691,27.691,0,0,1,8.461,4.4Z"/>
    <path id="パス_125171" data-name="パス 125171" d="M149.886,44.884,160.07,17.089h5.181l-2.761,7.534.186.069a60.312,60.312,0,0,1,12.807,6.569l-4.408,5.085a47.356,47.356,0,0,0-10.235-6.617l-.192-.079-5.582,15.234Zm21.4-21a22.746,22.746,0,0,0-.854-4.449l2.719-1.071a18.471,18.471,0,0,1,.981,4.253Zm5.081-2.012a20.758,20.758,0,0,0-1-4.1l2.768-1.1a17.378,17.378,0,0,1,1.108,3.94Z"/>
    <path id="パス_125172" data-name="パス 125172" d="M287.644,24.792a26.674,26.674,0,0,1-3.218,3.548l-2.269-1.632c.334-.282.8-.677,1.2-1.071h-3.51l-.869,2.338a15.039,15.039,0,0,0,2.172,4.758L278.4,35.268a10.451,10.451,0,0,1-.957-3.153l-4.492,12.08h-2.732L275.087,31.1a42.154,42.154,0,0,1-6.045,7.124l0-3.548a46.32,46.32,0,0,0,7.676-9.04h-3.739l1.036-2.788h4.142l1.9-5.1h2.733l-1.9,5.1h3.51l-1.026,2.761a33.276,33.276,0,0,0,5.251-6.929l2.835.423c-.466.789-1.041,1.718-1.856,2.9h2.216l1.581-4.252h2.848L294.665,22h6.069L299.7,24.792h-6.07l-1.465,3.943h6.645l-1.047,2.817h-5.725a13.273,13.273,0,0,0,3.431,7.406l-2.647,3.1a13.9,13.9,0,0,1-2.9-7.294l-3.508,9.435h-2.848l3.477-9.349a42.755,42.755,0,0,1-9.11,7.012l-.906-2.591a39.987,39.987,0,0,0,10.434-7.715h-6.3l1.047-2.817h7.106l1.465-3.943Z"/>
    <path id="パス_125173" data-name="パス 125173" d="M297.7,40.252c1.627-.2,5.689-.675,6.382-.76l3.037-8.167h-5.612l1.037-2.788h13.867l-1.036,2.788h-5.293l-2.9,7.8c3.486-.479,5.367-.817,6.572-1.042l-.984,2.647c-5.066,1.014-12.1,1.971-15.648,2.393ZM328.117,22.2h3.1l-1.046,2.815h-8.629c-.682,2.141-2.483,7.914-2.288,12.109.028.311.162,3.436,1.37,3.436.978,0,2.526-2.929,3.18-4.224l2.1,1.465c-1.209,2.167-3.524,6.308-6.115,6.308-1.725,0-6.929-1.944-1.243-19.094h-15.19l1.047-2.815h15.1c.231-.62,1.306-3.746,1.55-4.478h3.049c-.648,1.746-1.274,3.351-1.636,4.478h5.207a15.408,15.408,0,0,0-3.343-2.535l2.543-2.2a18.6,18.6,0,0,1,3.637,2.676Z"/>
    <path id="パス_125174" data-name="パス 125174" d="M348.835,44.364a12.21,12.21,0,0,0-.477-1.886c-4.088.393-10.7.844-20.813,1.041l.656-2.928c.605,0,3.223,0,4.126-.029A65.872,65.872,0,0,0,337.556,34h-7.394l1.016-2.732H357.1L356.083,34H341.094c-1.825,2.28-3.838,4.675-5.486,6.477,5.422-.113,6.037-.141,11.895-.423a20.514,20.514,0,0,0-1.9-4.027l2.989-1.464a25.8,25.8,0,0,1,3.659,8.11ZM338.328,26.51a43.825,43.825,0,0,1-5.647,2.422l-.692-2.7c5.217-1.578,11.885-5.041,15.68-8.674h3.308c.907,3.211,4.356,6.392,9.246,8.561l-2.888,2.816a30.187,30.187,0,0,1-3.7-2.506l-.6,1.6H337.762Zm14.093-1.154A20.008,20.008,0,0,1,348.428,20a50.213,50.213,0,0,1-7.917,5.351Z"/>
    <path id="パス_125175" data-name="パス 125175" d="M363.162,44.167H360.2l4.042-10.87a30.286,30.286,0,0,1-4.455,2.619l-.2-2.872a31.726,31.726,0,0,0,10.881-8.223h-7.422l1.026-2.76h4.344l1.633-4.393h2.963l-1.633,4.393h3.366l-1.026,2.76a37.411,37.411,0,0,1-4.676,4.759,11.464,11.464,0,0,0,2.741,3.464l-2.376,2.675a11.924,11.924,0,0,1-2.007-2.957Zm19.663-26.5h3.019l-2.962,7.969h6.157l-1.121,3.014h-6.157l-4.3,11.574h6.818l-1.12,3.012H366.069l1.12-3.012h7.249l4.3-11.574h-6.014l1.121-3.014h6.013Z"/>
    <path id="パス_125176" data-name="パス 125176" d="M47.542,43.505a4.482,4.482,0,1,1-4.482-4.482,4.482,4.482,0,0,1,4.482,4.482m24.1,5.548-3.313-9.415a6.239,6.239,0,0,0-5.857-4.172L37.1,35.442l-.661,1.877h6.674a6.119,6.119,0,0,1,5.847,3.954L53.4,53.326a1.009,1.009,0,0,0,.337.454l4.428,3.338a1,1,0,0,0,.6.2H84.358a43.534,43.534,0,0,1-12.467-7.877.962.962,0,0,1-.25-.389M30.06,35.432s-.149.006-.227.006a4.481,4.481,0,0,1-4.481-4.481,4.55,4.55,0,0,1,4.482-4.483,4.481,4.481,0,0,1,3.179,7.639H48.23s-2.011-2.038-.421-6.185a.646.646,0,0,1,.085-.182C53.124,21.234,72.37,8.927,74.783,7.022S94.443,0,94.443,0H64.315l-7.83,2.78a2.985,2.985,0,0,0-.856.45c-1.137.861-4.657,3.525-8.937,6.775L48.836,3.94a1.3,1.3,0,0,0-.13-1.145c-.667-1.024-1.339-1.388-3.093-2.667h-24.7C23.735,2.09,28.15,5.44,27.677,7.405c-.7,2.915-12.228,33.017-15.148,40.92a5.619,5.619,0,0,1-2.373,2.866L0,57.319H25.43L29.936,54a1,1,0,0,0,.343-.453L36.4,37.319h.047l.661-1.887Z" fill="#fff"/>
    <path id="パス_125177" data-name="パス 125177" d="M47.542,43.5a4.483,4.483,0,1,1-4.483-4.482A4.483,4.483,0,0,1,47.542,43.5" fill="#007fcc"/>
    <path id="パス_125178" data-name="パス 125178" d="M48.23,34.113s-2.011-2.038-.421-6.185a.646.646,0,0,1,.085-.182C53.124,21.234,72.37,8.927,74.783,7.022S94.443,0,94.443,0H64.315l-7.83,2.78a2.972,2.972,0,0,0-.856.45c-1.138.861-4.657,3.525-8.938,6.775L37.6,34.113Z" fill="#fcd100"/>
    <path id="パス_125179" data-name="パス 125179" d="M71.64,49.052l-3.313-9.415a6.238,6.238,0,0,0-5.857-4.172L37.1,35.441l-.661,1.878h6.674a6.12,6.12,0,0,1,5.847,3.953L53.4,53.326a1,1,0,0,0,.336.453l4.428,3.338a1,1,0,0,0,.6.2H84.357A43.538,43.538,0,0,1,71.89,49.441a.973.973,0,0,1-.25-.389" fill="#fcd100"/>
    <path id="パス_125180" data-name="パス 125180" d="M48.706,2.8c-.668-1.024-1.339-1.389-3.093-2.668h-24.7C23.735,2.09,28.15,5.44,27.677,7.4c-.7,2.915-12.229,33.018-15.148,40.92a5.622,5.622,0,0,1-2.374,2.867L0,57.319H25.429L29.935,54a1,1,0,0,0,.344-.453L36.4,37.319H31.089a6.447,6.447,0,0,1-1.258,0,6.4,6.4,0,0,1-6.073-4.454,8.18,8.18,0,0,1,.043-3.941,6.378,6.378,0,0,1,1.974-2.877l.021-.016c3.476-2.77,13.364-10.307,20.9-16.026L48.836,3.94a1.309,1.309,0,0,0-.13-1.145" fill="#007fcc"/>
    <path id="パス_125181" data-name="パス 125181" d="M37.6,34.113l9.086-24.108C39.16,15.724,29.272,23.261,25.8,26.031l-.021.017A6.37,6.37,0,0,0,23.8,28.924a8.18,8.18,0,0,0-.043,3.941,6.4,6.4,0,0,0,6.073,4.454,6.447,6.447,0,0,0,1.258,0h5.355l.66-1.887H30.06s-.149.006-.227.006a4.482,4.482,0,0,1-4.482-4.481,4.552,4.552,0,0,1,4.482-4.483,4.48,4.48,0,0,1,3.179,7.639Z" fill="#8fc765"/>
  </g>
</svg>
